<?xml version="1.0" encoding="UTF-8"?>
<!DOCTYPE svg PUBLIC "-//W3C//DTD SVG 1.1//EN" "http://www.w3.org/Graphics/SVG/1.1/DTD/svg11.dtd">
<!-- Creator: CorelDRAW X7 -->
<svg xmlns="http://www.w3.org/2000/svg" xml:space="preserve" width="1.54662in" height="1.8663in" version="1.1" shape-rendering="geometricPrecision" text-rendering="geometricPrecision" image-rendering="optimizeQuality" fill-rule="evenodd" clip-rule="evenodd"
viewBox="0 0 3777 4558"
 xmlns:xlink="http://www.w3.org/1999/xlink">
 <g id="Layer_x0020_1">
  <metadata id="CorelCorpID_0Corel-Layer"/>
  <path fill="white" fill-rule="nonzero" stroke="black" stroke-width="271.34" d="M195 2814c0,-670 0,-1339 0,-2009 0,-369 300,-669 670,-669 702,0 1404,0 2107,0 369,0 669,300 669,669 0,670 0,1339 0,2009 0,369 -300,669 -669,669 -438,0 -875,0 -1312,0 -518,320 -1037,640 -1555,959 260,-319 520,-639 779,-959 -6,0 -13,0 -19,0 -370,0 -670,-300 -670,-669z"/>
  <polygon fill="black" fill-rule="nonzero" points="1031,2366 1031,2676 2771,2676 2771,1678 1394,1678 1394,1304 2771,1304 2771,994 1031,994 1031,1988 2408,1988 2408,2366 "/>
 </g>
</svg>
