<?xml version="1.0" encoding="UTF-8"?>
<!DOCTYPE svg PUBLIC "-//W3C//DTD SVG 1.1//EN" "http://www.w3.org/Graphics/SVG/1.1/DTD/svg11.dtd">
<!-- Creator: CorelDRAW X7 -->
<svg xmlns="http://www.w3.org/2000/svg" xml:space="preserve" version="1.1" style="shape-rendering:geometricPrecision; text-rendering:geometricPrecision; image-rendering:optimizeQuality; fill-rule:evenodd; clip-rule:evenodd"
viewBox="0 0 6570 3008"
 xmlns:xlink="http://www.w3.org/1999/xlink">
 <defs>
  <style type="text/css">
   <![CDATA[
    .str0 {stroke:#282829;stroke-width:103.652}
    .fil0 {fill:#FEFEFE}
    .fil1 {fill:#282829;fill-rule:nonzero}
   ]]>
  </style>
 </defs>
 <g id="Layer_x0020_1">
  <metadata id="CorelCorpID_0Corel-Layer"/>
  <path class="fil0 str0" d="M493 52l5584 0c242,0 441,198 441,441l0 768c0,243 -199,441 -441,441l-3929 0 -2100 1262 1095 -1262 -650 0c-243,0 -441,-198 -441,-441l0 -768c0,-243 198,-441 441,-441z"/>
  <path class="fil1" d="M716 1080l0 118 664 0 0 -381 -526 0 0 -143 526 0 0 -118 -664 0 0 380 526 0 0 144 -526 0zm935 -406l387 0 0 110 139 0 0 -228 -665 0 0 642 665 0 0 -228 -139 0 0 110 -387 0 0 -406zm1184 524l139 0 0 -642 -139 0 0 261 -387 0 0 -261 -139 0 0 642 139 0 0 -261 387 0 0 261zm1003 -119l-212 0 0 -386 -138 0 0 386 -212 0 -46 -523 -139 0 61 642 810 0 61 -642 -139 0 -46 523zm302 -523l0 642 139 0 0 -642 -139 0zm246 119l278 0 0 523 139 0 0 -523 278 0 0 -119 -695 0 0 119zm941 341l298 0 86 182 143 0 -82 -182 81 0 0 -460 -664 0 0 642 138 0 0 -182zm0 -119l0 -222 388 0 0 222 -388 0z"/>
 </g>
</svg>
